<?xml version="1.0" standalone="no"?>
<svg xmlns="http://www.w3.org/2000/svg" viewBox="0 0 1440 320">
    <defs>
        <linearGradient id="grad1" x1="0%" y1="0%" x2="100%" y2="0%">
            <stop offset="10%" style="stop-color:#ff9900;stop-opacity:1" />
            <stop offset="90%" style="stop-color:#ff6600;stop-opacity:1" />
        </linearGradient>
    </defs>
    <path fill="url(#grad1)" d="M0,160L21.8,144C43.6,128,87,96,131,112C174.5,128,218,192,262,224C305.5,256,349,256,393,224C436.4,192,480,128,524,138.7C567.3,149,611,235,655,250.7C698.2,267,742,213,785,186.7C829.1,160,873,160,916,154.7C960,149,1004,139,1047,154.7C1090.9,171,1135,213,1178,234.7C1221.8,256,1265,256,1309,218.7C1352.7,181,1396,107,1418,69.3L1440,32L1440,320L1418.2,320C1396.4,320,1353,320,1309,320C1265.5,320,1222,320,1178,320C1134.5,320,1091,320,1047,320C1003.6,320,960,320,916,320C872.7,320,829,320,785,320C741.8,320,698,320,655,320C610.9,320,567,320,524,320C480,320,436,320,393,320C349.1,320,305,320,262,320C218.2,320,175,320,131,320C87.3,320,44,320,22,320L0,320Z"></path>
</svg>